<svg width="334" height="334" viewBox="0 0 334 334" fill="none" xmlns="http://www.w3.org/2000/svg">
<path d="M139.167 292.25L100.028 264.294C63.4553 238.171 41.75 195.994 41.75 151.049V80.0809C41.75 73.8674 45.8691 68.4068 51.8435 66.6997L135.343 42.8427C137.842 42.1286 140.492 42.1286 142.99 42.8427L226.49 66.6997C232.464 68.4068 236.583 73.8674 236.583 80.0809V104.375M264.417 208.75V180.917C264.417 165.546 251.956 153.083 236.583 153.083C221.211 153.083 208.75 165.546 208.75 180.917V208.75M264.417 208.75H208.75M264.417 208.75C279.789 208.75 292.25 221.212 292.25 236.583V264.417C292.25 279.789 279.789 292.25 264.417 292.25H208.75C193.378 292.25 180.917 279.789 180.917 264.417V236.583C180.917 221.212 193.378 208.75 208.75 208.75" stroke="#FFA500" stroke-width="27.8333" stroke-linecap="round" stroke-linejoin="round"/>
</svg>
